<svg width="32" height="32" viewBox="0 0 32 32" fill="none" xmlns="http://www.w3.org/2000/svg">
<path fill-rule="evenodd" clip-rule="evenodd" d="M0.941406 16C0.941406 24.3168 7.68347 31.0588 16.0002 31.0588C24.317 31.0588 31.0591 24.3168 31.0591 16C31.0591 7.68322 24.317 0.941162 16.0002 0.941162C7.68347 0.941162 0.941406 7.68322 0.941406 16ZM12.8776 7.56253C12.8776 9.25703 14.2512 10.6307 15.9457 10.6307C17.6402 10.6307 19.0139 9.25703 19.0139 7.56253C19.0139 5.86802 17.6402 4.49437 15.9457 4.49437C14.2512 4.49437 12.8776 5.86802 12.8776 7.56253ZM15.9457 27.5056C14.2512 27.5056 12.8776 26.1319 12.8776 24.4374C12.8776 22.743 14.2512 21.3693 15.9457 21.3693C17.6402 21.3693 19.0139 22.743 19.0139 24.4374C19.0139 26.1319 17.6402 27.5056 15.9457 27.5056ZM20.1851 11.7813C20.1851 13.4758 21.5587 14.8494 23.2532 14.8494C24.9477 14.8494 26.3215 13.4758 26.3215 11.7813C26.3215 10.0867 24.9477 8.71308 23.2532 8.71308C21.5587 8.71308 20.1851 10.0867 20.1851 11.7813ZM8.63949 23.2869C6.94499 23.2869 5.57133 21.9132 5.57133 20.2187C5.57133 18.5242 6.94499 17.1506 8.63949 17.1506C10.334 17.1506 11.7076 18.5242 11.7076 20.2187C11.7076 21.9132 10.334 23.2869 8.63949 23.2869ZM20.185 20.2187C20.185 21.9132 21.5586 23.2869 23.2532 23.2869C24.9477 23.2869 26.3214 21.9132 26.3214 20.2187C26.3214 18.5242 24.9477 17.1506 23.2532 17.1506C21.5586 17.1506 20.185 18.5242 20.185 20.2187ZM8.63949 14.8494C6.94499 14.8494 5.57133 13.4758 5.57133 11.7813C5.57133 10.0867 6.94499 8.71308 8.63949 8.71308C10.334 8.71308 11.7076 10.0867 11.7076 11.7813C11.7076 13.4758 10.334 14.8494 8.63949 14.8494Z" fill="#4F2570" fill-opacity="0.1"/>
<path fill-rule="evenodd" clip-rule="evenodd" d="M16.0002 30.521C7.98049 30.521 1.47922 24.0198 1.47922 16C1.47922 7.98026 7.98049 1.47898 16.0002 1.47898C24.02 1.47898 30.5213 7.98026 30.5213 16C30.5213 24.0198 24.02 30.521 16.0002 30.521ZM12.3398 7.56253C12.3398 9.55406 13.9542 11.1686 15.9457 11.1686C17.9373 11.1686 19.5518 9.55406 19.5518 7.56253C19.5518 5.571 17.9373 3.95655 15.9457 3.95655C13.9542 3.95655 12.3398 5.571 12.3398 7.56253ZM12.3398 24.4374C12.3398 26.429 13.9542 28.0434 15.9457 28.0434C17.9373 28.0434 19.5518 26.429 19.5518 24.4374C19.5518 22.4459 17.9373 20.8314 15.9457 20.8314C13.9542 20.8314 12.3398 22.4459 12.3398 24.4374ZM19.6473 11.7813C19.6473 13.7728 21.2617 15.3872 23.2532 15.3872C25.2447 15.3872 26.8592 13.7728 26.8592 11.7813C26.8592 9.78971 25.2447 8.17526 23.2532 8.17526C21.2617 8.17526 19.6473 9.78971 19.6473 11.7813ZM5.03351 20.2187C5.03351 22.2102 6.64797 23.8246 8.63949 23.8246C10.631 23.8246 12.2455 22.2102 12.2455 20.2187C12.2455 18.2272 10.631 16.6127 8.63949 16.6127C6.64797 16.6127 5.03351 18.2272 5.03351 20.2187ZM19.6472 20.2187C19.6472 22.2102 21.2617 23.8246 23.2532 23.8246C25.2447 23.8246 26.8591 22.2102 26.8591 20.2187C26.8591 18.2272 25.2447 16.6127 23.2532 16.6127C21.2617 16.6127 19.6472 18.2272 19.6472 20.2187ZM5.03351 11.7813C5.03351 13.7728 6.64797 15.3872 8.63949 15.3872C10.631 15.3872 12.2455 13.7728 12.2455 11.7813C12.2455 9.78971 10.631 8.17526 8.63949 8.17526C6.64797 8.17526 5.03351 9.78971 5.03351 11.7813ZM16.0002 31.0588C7.68347 31.0588 0.941406 24.3168 0.941406 16C0.941406 7.68322 7.68347 0.941162 16.0002 0.941162C24.317 0.941162 31.0591 7.68322 31.0591 16C31.0591 24.3168 24.317 31.0588 16.0002 31.0588ZM15.9457 10.6307C14.2512 10.6307 12.8776 9.25703 12.8776 7.56253C12.8776 5.86802 14.2512 4.49437 15.9457 4.49437C17.6402 4.49437 19.0139 5.86802 19.0139 7.56253C19.0139 9.25703 17.6402 10.6307 15.9457 10.6307ZM12.8776 24.4374C12.8776 26.1319 14.2512 27.5056 15.9457 27.5056C17.6402 27.5056 19.0139 26.1319 19.0139 24.4374C19.0139 22.743 17.6402 21.3693 15.9457 21.3693C14.2512 21.3693 12.8776 22.743 12.8776 24.4374ZM23.2532 14.8494C21.5587 14.8494 20.1851 13.4758 20.1851 11.7813C20.1851 10.0867 21.5587 8.71308 23.2532 8.71308C24.9477 8.71308 26.3215 10.0867 26.3215 11.7813C26.3215 13.4758 24.9477 14.8494 23.2532 14.8494ZM5.57133 20.2187C5.57133 21.9132 6.94499 23.2869 8.63949 23.2869C10.334 23.2869 11.7076 21.9132 11.7076 20.2187C11.7076 18.5242 10.334 17.1506 8.63949 17.1506C6.94499 17.1506 5.57133 18.5242 5.57133 20.2187ZM23.2532 23.2869C21.5586 23.2869 20.185 21.9132 20.185 20.2187C20.185 18.5242 21.5586 17.1506 23.2532 17.1506C24.9477 17.1506 26.3214 18.5242 26.3214 20.2187C26.3214 21.9132 24.9477 23.2869 23.2532 23.2869ZM5.57133 11.7813C5.57133 13.4758 6.94499 14.8494 8.63949 14.8494C10.334 14.8494 11.7076 13.4758 11.7076 11.7813C11.7076 10.0867 10.334 8.71308 8.63949 8.71308C6.94499 8.71308 5.57133 10.0867 5.57133 11.7813Z" fill="#4F2570"/>
</svg>
