<svg width="220" height="250" viewBox="0 0 220 250" fill="none" xmlns="http://www.w3.org/2000/svg">
<path d="M172.358 83.8776C172.358 78.2283 167.779 73.6487 162.129 73.6487H50.122C44.4727 73.6487 39.893 78.2283 39.893 83.8776V95.1071L6.78507 83.6653C3.46322 82.5173 0 84.9846 0 88.4992V134.316C0 137.733 3.28669 140.189 6.56377 139.22L39.893 129.372V138.603C39.893 144.252 44.4727 148.832 50.122 148.832H92.3845L63.7104 247.592C63.441 248.519 63.9402 249.496 64.8496 249.822C65.7578 250.147 66.7622 249.71 67.1438 248.824L108.83 152.022C109.01 151.604 109.13 151.177 109.193 150.748L115.179 237.643C115.245 238.609 116.048 239.358 117.016 239.358C117.983 239.358 118.785 238.611 118.854 237.647L125.028 150.724C125.09 151.159 125.21 151.593 125.392 152.016L166.892 248.892C167.272 249.78 168.278 250.218 169.187 249.893C170.095 249.568 170.594 248.593 170.327 247.666L141.835 148.832H162.129C167.779 148.832 172.358 144.252 172.358 138.603V83.8776Z" fill="#4F2570"/>
<path fill-rule="evenodd" clip-rule="evenodd" d="M48.5871 45.519C48.5871 70.6584 68.9666 91.0379 94.106 91.0379C119.245 91.0379 139.625 70.6584 139.625 45.519C139.625 20.3795 119.245 0 94.106 0C68.9666 0 48.5871 20.3795 48.5871 45.519ZM84.6671 20.0147C84.6671 25.1367 88.8193 29.289 93.9414 29.289C99.0634 29.289 103.216 25.1367 103.216 20.0147C103.216 14.8927 99.0634 10.7404 93.9414 10.7404C88.8193 10.7404 84.6671 14.8927 84.6671 20.0147ZM93.9414 80.2975C88.8193 80.2975 84.6671 76.1452 84.6671 71.0232C84.6671 65.9012 88.8193 61.7489 93.9414 61.7489C99.0634 61.7489 103.216 65.9012 103.216 71.0232C103.216 76.1452 99.0634 80.2975 93.9414 80.2975ZM106.756 32.7668C106.756 37.8888 110.908 42.041 116.03 42.041C121.152 42.041 125.304 37.8888 125.304 32.7668C125.304 27.6447 121.152 23.4925 116.03 23.4925C110.908 23.4925 106.756 27.6447 106.756 32.7668ZM71.8566 67.5453C66.7346 67.5453 62.5823 63.3931 62.5823 58.2711C62.5823 53.149 66.7346 48.9968 71.8566 48.9968C76.9786 48.9968 81.1309 53.149 81.1309 58.2711C81.1309 63.3931 76.9786 67.5453 71.8566 67.5453ZM106.756 58.2711C106.756 63.3931 110.908 67.5453 116.03 67.5453C121.152 67.5453 125.304 63.3931 125.304 58.2711C125.304 53.149 121.152 48.9968 116.03 48.9968C110.908 48.9968 106.756 53.149 106.756 58.2711ZM71.8566 42.041C66.7346 42.041 62.5823 37.8888 62.5823 32.7668C62.5823 27.6447 66.7346 23.4925 71.8566 23.4925C76.9786 23.4925 81.1309 27.6447 81.1309 32.7668C81.1309 37.8888 76.9786 42.041 71.8566 42.041Z" fill="url(#paint0_radial_1009_58)"/>
<path fill-rule="evenodd" clip-rule="evenodd" d="M143.625 73.6487C143.625 94.5511 160.57 111.496 181.473 111.496C202.375 111.496 219.32 94.5511 219.32 73.6487C219.32 52.7462 202.375 35.8014 181.473 35.8014C160.57 35.8014 143.625 52.7462 143.625 73.6487ZM173.624 52.4429C173.624 56.7016 177.077 60.154 181.336 60.154C185.594 60.154 189.047 56.7016 189.047 52.4429C189.047 48.1841 185.594 44.7317 181.336 44.7317C177.077 44.7317 173.624 48.1841 173.624 52.4429ZM181.336 102.566C177.077 102.566 173.624 99.1132 173.624 94.8544C173.624 90.5956 177.077 87.1432 181.336 87.1432C185.594 87.1432 189.047 90.5956 189.047 94.8544C189.047 99.1132 185.594 102.566 181.336 102.566ZM191.99 63.0457C191.99 67.3045 195.443 70.7569 199.702 70.7569C203.96 70.7569 207.413 67.3045 207.413 63.0457C207.413 58.7869 203.96 55.3345 199.702 55.3345C195.443 55.3345 191.99 58.7869 191.99 63.0457ZM162.973 91.9627C158.714 91.9627 155.262 88.5103 155.262 84.2515C155.262 79.9927 158.714 76.5403 162.973 76.5403C167.232 76.5403 170.684 79.9927 170.684 84.2515C170.684 88.5103 167.232 91.9627 162.973 91.9627ZM191.99 84.2515C191.99 88.5103 195.443 91.9627 199.701 91.9627C203.96 91.9627 207.413 88.5103 207.413 84.2515C207.413 79.9927 203.96 76.5403 199.701 76.5403C195.443 76.5403 191.99 79.9927 191.99 84.2515ZM162.973 70.7569C158.714 70.7569 155.262 67.3045 155.262 63.0457C155.262 58.7869 158.714 55.3345 162.973 55.3345C167.232 55.3345 170.684 58.7869 170.684 63.0457C170.684 67.3045 167.232 70.7569 162.973 70.7569Z" fill="url(#paint1_radial_1009_58)"/>
<defs>
<radialGradient id="paint0_radial_1009_58" cx="0" cy="0" r="1" gradientUnits="userSpaceOnUse" gradientTransform="translate(94.106 45.519) rotate(-90) scale(41.4223 43.0063)">
<stop stop-color="#FF9900"/>
<stop offset="1" stop-color="#E73030"/>
</radialGradient>
<radialGradient id="paint1_radial_1009_58" cx="0" cy="0" r="1" gradientUnits="userSpaceOnUse" gradientTransform="translate(181.473 73.6487) rotate(-90) scale(34.441 35.7581)">
<stop stop-color="#FF9900"/>
<stop offset="1" stop-color="#E73030"/>
</radialGradient>
</defs>
</svg>
