<svg width="140" height="69" viewBox="0 0 140 69" fill="none" xmlns="http://www.w3.org/2000/svg">
<path fill-rule="evenodd" clip-rule="evenodd" d="M78.1559 60.1787C86.0239 60.2409 93.6567 60.3013 99.9964 61.2436C105.251 62.0245 109.348 63.8005 112.934 65.3553C119.66 68.2711 124.591 70.4087 131.997 63.7436C141.501 55.1897 133.14 50.2491 120.777 42.9438C113.628 38.7197 105.141 33.7049 97.9968 26.7437C83.9127 13.0208 61.0001 -8.78543 43.9967 3.74357C31.8153 12.7195 26.1695 29.2443 30.4966 43.7436C35.3001 59.8395 57.5355 60.0155 78.1559 60.1787ZM111.365 58.1884C110.125 57.9887 108.763 57.2504 107.767 56.2661C107.186 55.6919 106.779 55.0665 106.34 54.3919C106.1 54.023 105.85 53.6394 105.557 53.2415L105.556 53.2406C105.452 53.0994 105.348 52.9574 105.242 52.8149C104.33 51.5814 103.339 50.2887 102.167 49.4063C100.944 48.4857 99.4861 47.9828 97.7158 48.3817C96.7378 48.602 95.8982 49.028 95.3151 49.3852C95.0203 49.5657 94.7828 49.7338 94.6164 49.8589C94.533 49.9215 94.467 49.9738 94.4201 50.0119C94.3966 50.0309 94.3778 50.0465 94.364 50.0581L94.347 50.0725L94.3414 50.0773L94.3393 50.0791L94.3376 50.0806C93.9263 50.4372 93.8805 51.0614 94.2354 51.4748C94.5896 51.8875 95.2094 51.934 95.6207 51.5793L95.6563 51.5498C95.6856 51.526 95.7323 51.489 95.7946 51.4421C95.9196 51.3482 96.1054 51.2164 96.3388 51.0734C96.8121 50.7836 97.4479 50.4682 98.1462 50.3109C99.2472 50.0628 100.128 50.3419 100.987 50.9886C101.897 51.6735 102.731 52.7335 103.664 53.9944C103.765 54.132 103.868 54.272 103.972 54.4136L103.974 54.4163C104.79 55.5252 105.681 56.7369 106.698 57.7422C107.862 58.8923 109.267 59.853 111.054 60.1406C113.368 60.5129 114.904 59.7997 116.17 59.2118L116.225 59.1864C117.465 58.611 118.398 58.2019 119.873 58.5737C120.555 58.7457 121.18 59.0751 121.647 59.3767C121.878 59.5254 122.061 59.6618 122.185 59.7591L122.357 59.901C122.761 60.2646 123.382 60.2309 123.745 59.8252C124.108 59.4191 124.074 58.7934 123.67 58.4285L123.667 58.4259L123.661 58.421L123.645 58.4064C123.631 58.3946 123.613 58.3787 123.59 58.3592C123.544 58.3202 123.479 58.2666 123.397 58.2022C123.234 58.0736 123 57.9004 122.711 57.7134C122.139 57.3438 121.313 56.8984 120.352 56.656C118.17 56.1061 116.686 56.7947 115.409 57.3875L115.4 57.3914C114.157 57.9681 113.084 58.465 111.365 58.1884ZM75.11 18.0815C75.11 21.9475 71.976 25.0815 68.11 25.0815C64.244 25.0815 61.11 21.9475 61.11 18.0815C61.11 14.2155 64.244 11.0815 68.11 11.0815C71.976 11.0815 75.11 14.2155 75.11 18.0815ZM54.11 35.0815C57.976 35.0815 61.11 31.9475 61.11 28.0815C61.11 24.2155 57.976 21.0815 54.11 21.0815C50.244 21.0815 47.11 24.2155 47.11 28.0815C47.11 31.9475 50.244 35.0815 54.11 35.0815ZM64.11 44.0815C64.11 47.9475 60.976 51.0815 57.11 51.0815C53.244 51.0815 50.11 47.9475 50.11 44.0815C50.11 40.2155 53.244 37.0815 57.11 37.0815C60.976 37.0815 64.11 40.2155 64.11 44.0815ZM71.11 58.0815C74.976 58.0815 78.11 54.9475 78.11 51.0815C78.11 47.2155 74.976 44.0815 71.11 44.0815C67.244 44.0815 64.11 47.2155 64.11 51.0815C64.11 54.9475 67.244 58.0815 71.11 58.0815ZM91.11 42.0815C91.11 45.9475 87.976 49.0815 84.11 49.0815C80.244 49.0815 77.11 45.9475 77.11 42.0815C77.11 38.2155 80.244 35.0815 84.11 35.0815C87.976 35.0815 91.11 38.2155 91.11 42.0815ZM84.11 32.0815C87.976 32.0815 91.11 28.9475 91.11 25.0815C91.11 21.2155 87.976 18.0815 84.11 18.0815C80.244 18.0815 77.11 21.2155 77.11 25.0815C77.11 28.9475 80.244 32.0815 84.11 32.0815Z" fill="#4F2570" fill-opacity="0.15"/>
<path fill-rule="evenodd" clip-rule="evenodd" d="M47.4322 21.9354C40.3767 26.8291 33.5321 31.5765 27.2823 34.6967C4.65305 45.9943 29.6628 61.4687 50.9116 65.2656C69.4403 68.5765 97.8471 73.3332 109.609 59.7388C108.482 59.2867 107.529 58.5626 106.699 57.7422C105.681 56.7369 104.791 55.5259 103.975 54.417L103.973 54.4136C103.869 54.272 103.766 54.132 103.664 53.9944C102.731 52.7335 101.897 51.6735 100.988 50.9886C100.128 50.3419 99.2475 50.0628 98.1465 50.3109C97.4482 50.4682 96.8124 50.7836 96.3391 51.0734C96.1058 51.2164 95.9199 51.3482 95.7949 51.4421C95.7326 51.4889 95.6859 51.526 95.6566 51.5498L95.621 51.5792C95.2097 51.934 94.59 51.8875 94.2357 51.4748C93.8808 51.0614 93.9266 50.4372 94.3379 50.0805L94.3396 50.0791L94.3417 50.0773L94.3474 50.0724L94.3643 50.0581L94.3778 50.0468L94.3975 50.0305L94.4204 50.0119C94.4673 49.9738 94.5333 49.9215 94.6167 49.8588C94.7831 49.7338 95.0206 49.5657 95.3154 49.3851C95.8985 49.028 96.7382 48.602 97.7161 48.3817C99.4864 47.9828 100.944 48.4857 102.167 49.4062C103.339 50.2887 104.33 51.5814 105.243 52.8149L105.398 53.0251L105.557 53.2406L105.557 53.2415C105.85 53.6394 106.1 54.023 106.34 54.3919C106.779 55.0665 107.186 55.6919 107.768 56.2661C108.638 57.126 109.787 57.7982 110.891 58.0875C112.022 56.4586 112.946 54.6054 113.629 52.5027C118.807 36.5566 113.378 17.7593 100.338 7.10613C85.8623 -4.72008 65.9231 9.10989 47.4322 21.9354ZM76.1103 18.0815C76.1103 21.9475 72.9763 25.0815 69.1103 25.0815C65.2444 25.0815 62.1103 21.9475 62.1103 18.0815C62.1103 14.2155 65.2444 11.0815 69.1103 11.0815C72.9763 11.0815 76.1103 14.2155 76.1103 18.0815ZM55.1103 35.0815C58.9763 35.0815 62.1103 31.9475 62.1103 28.0815C62.1103 24.2155 58.9763 21.0815 55.1103 21.0815C51.2444 21.0815 48.1103 24.2155 48.1103 28.0815C48.1103 31.9475 51.2444 35.0815 55.1103 35.0815ZM65.1103 44.0815C65.1103 47.9475 61.9763 51.0815 58.1103 51.0815C54.2444 51.0815 51.1103 47.9475 51.1103 44.0815C51.1103 40.2155 54.2444 37.0815 58.1103 37.0815C61.9763 37.0815 65.1103 40.2155 65.1103 44.0815ZM72.1103 58.0815C75.9763 58.0815 79.1103 54.9475 79.1103 51.0815C79.1103 47.2155 75.9763 44.0815 72.1103 44.0815C68.2444 44.0815 65.1103 47.2155 65.1103 51.0815C65.1103 54.9475 68.2444 58.0815 72.1103 58.0815ZM92.1103 42.0815C92.1103 45.9475 88.9763 49.0815 85.1103 49.0815C81.2444 49.0815 78.1103 45.9475 78.1103 42.0815C78.1103 38.2155 81.2444 35.0815 85.1103 35.0815C88.9763 35.0815 92.1103 38.2155 92.1103 42.0815ZM85.1103 32.0815C88.9763 32.0815 92.1103 28.9475 92.1103 25.0815C92.1103 21.2155 88.9763 18.0815 85.1103 18.0815C81.2444 18.0815 78.1103 21.2155 78.1103 25.0815C78.1103 28.9475 81.2444 32.0815 85.1103 32.0815Z" fill="#4F2570" fill-opacity="0.1"/>
<path fill-rule="evenodd" clip-rule="evenodd" d="M63.1904 19.5552C63.1904 23.2582 66.1923 26.2601 69.8953 26.2601C73.5983 26.2601 76.6002 23.2582 76.6002 19.5552C76.6002 15.8522 73.5983 12.8503 69.8953 12.8503C66.1923 12.8503 63.1904 15.8522 63.1904 19.5552ZM64.1904 19.5552C64.1904 22.7059 66.7446 25.2601 69.8953 25.2601C73.046 25.2601 75.6002 22.7059 75.6002 19.5552C75.6002 16.4045 73.046 13.8503 69.8953 13.8503C66.7446 13.8503 64.1904 16.4045 64.1904 19.5552Z" fill="#4F2570"/>
<path fill-rule="evenodd" clip-rule="evenodd" d="M63.1904 50.932C63.1904 54.6349 66.1923 57.6368 69.8953 57.6368C73.5983 57.6368 76.6002 54.6349 76.6002 50.932C76.6002 47.229 73.5983 44.2271 69.8953 44.2271C66.1923 44.2271 63.1904 47.229 63.1904 50.932ZM69.8953 56.6368C66.7446 56.6368 64.1904 54.0827 64.1904 50.932C64.1904 47.7812 66.7446 45.2271 69.8953 45.2271C73.046 45.2271 75.6002 47.7812 75.6002 50.932C75.6002 54.0827 73.046 56.6368 69.8953 56.6368Z" fill="#4F2570"/>
<path fill-rule="evenodd" clip-rule="evenodd" d="M76.7778 27.3994C76.7778 31.1023 79.7797 34.1042 83.4827 34.1042C87.1857 34.1042 90.1875 31.1023 90.1875 27.3994C90.1875 23.6964 87.1857 20.6945 83.4827 20.6945C79.7797 20.6945 76.7778 23.6964 76.7778 27.3994ZM77.7778 27.3994C77.7778 30.5501 80.332 33.1042 83.4827 33.1042C86.6334 33.1042 89.1875 30.5501 89.1875 27.3994C89.1875 24.2486 86.6334 21.6945 83.4827 21.6945C80.332 21.6945 77.7778 24.2486 77.7778 27.3994Z" fill="#4F2570"/>
<path fill-rule="evenodd" clip-rule="evenodd" d="M49.6053 43.0878C49.6053 46.7908 52.6072 49.7926 56.3102 49.7926C60.0132 49.7926 63.0151 46.7907 63.0151 43.0878C63.0151 39.3848 60.0132 36.3829 56.3102 36.3829C52.6072 36.3829 49.6053 39.3848 49.6053 43.0878ZM56.3102 48.7926C53.1595 48.7926 50.6053 46.2385 50.6053 43.0878C50.6053 39.937 53.1595 37.3829 56.3102 37.3829C59.4609 37.3829 62.0151 39.937 62.0151 43.0878C62.0151 46.2385 59.4609 48.7926 56.3102 48.7926Z" fill="#4F2570"/>
<path fill-rule="evenodd" clip-rule="evenodd" d="M76.7777 43.0878C76.7777 46.7907 79.7795 49.7926 83.4825 49.7926C87.1855 49.7926 90.1874 46.7907 90.1874 43.0878C90.1874 39.3848 87.1855 36.3829 83.4825 36.3829C79.7795 36.3829 76.7777 39.3848 76.7777 43.0878ZM77.7777 43.0878C77.7777 46.2385 80.3318 48.7926 83.4825 48.7926C86.6332 48.7926 89.1874 46.2385 89.1874 43.0878C89.1874 39.937 86.6332 37.3829 83.4825 37.3829C80.3318 37.3829 77.7777 39.937 77.7777 43.0878Z" fill="#4F2570"/>
<path fill-rule="evenodd" clip-rule="evenodd" d="M49.6053 27.3994C49.6053 31.1023 52.6072 34.1042 56.3102 34.1042C60.0132 34.1042 63.0151 31.1023 63.0151 27.3994C63.0151 23.6964 60.0132 20.6945 56.3102 20.6945C52.6072 20.6945 49.6053 23.6964 49.6053 27.3994ZM56.3102 33.1042C53.1595 33.1042 50.6053 30.5501 50.6053 27.3994C50.6053 24.2486 53.1595 21.6945 56.3102 21.6945C59.4609 21.6945 62.0151 24.2486 62.0151 27.3994C62.0151 30.5501 59.4609 33.1042 56.3102 33.1042Z" fill="#4F2570"/>
<path fill-rule="evenodd" clip-rule="evenodd" d="M90.1719 54.659C85.0781 59.9509 77.9219 63.2436 69.9966 63.2436C54.5326 63.2436 41.9966 50.7076 41.9966 35.2436C41.9966 19.7796 54.5326 7.24359 69.9966 7.24359C85.4606 7.24359 97.9966 19.7796 97.9966 35.2436C97.9966 39.9272 96.8466 44.3422 94.8137 48.2218L96.5714 47.252L96.5997 47.2406C97.6863 46.8037 98.9696 46.5593 100.274 46.9125C101.59 47.2688 102.85 48.2117 103.918 49.9969C105.773 53.0991 107.83 55.0955 109.919 56.0209C111.985 56.936 114.13 56.8264 116.258 55.6228C118.839 54.1627 121.115 54.6061 122.72 55.4162C123.515 55.8172 124.146 56.3069 124.58 56.6964C124.791 56.8865 124.984 57.0704 125.124 57.2063C125.194 57.2744 125.251 57.3309 125.29 57.3705L125.336 57.4167L125.349 57.4292L125.352 57.4326L125.353 57.4336L125.543 57.6272L124.523 62.2714L123.874 61.5878L123.873 61.5868L123.814 61.5248C123.777 61.4863 123.727 61.4341 123.675 61.3793C123.562 61.2624 123.456 61.1549 123.423 61.1247C123.336 61.0457 123.203 60.9305 123.027 60.7976C122.673 60.5309 122.156 60.1981 121.51 59.9397C120.232 59.429 118.437 59.2004 116.335 60.3893C113.81 61.8173 111.202 61.954 108.717 60.8524C106.256 59.7611 103.964 57.477 101.976 54.154C100.461 51.6214 97.982 51.7099 97.1661 51.7391C97.0972 51.7416 97.0402 51.7436 96.9966 51.7436C96.9365 51.7436 96.7786 51.7646 96.5163 51.8297C96.2667 51.8917 95.9545 51.9853 95.6022 52.1092C94.8971 52.3574 94.0498 52.7207 93.2434 53.1784C92.6165 53.5343 91.8546 53.915 91.2547 54.2045C90.9537 54.3498 90.6913 54.4732 90.504 54.5603C90.4103 54.6039 90.3354 54.6384 90.2837 54.6621L90.2242 54.6893L90.2035 54.6988L90.1808 54.6498C90.1808 54.6498 90.1808 54.6498 90.1808 54.6498L90.2035 54.6988L90.1719 54.659ZM69.9966 62.2436C55.0849 62.2436 42.9966 50.1553 42.9966 35.2436C42.9966 20.3319 55.0849 8.24359 69.9966 8.24359C84.9083 8.24359 96.9966 20.3319 96.9966 35.2436C96.9966 41.3015 95.0015 46.8935 91.6326 51.3982L90.5279 52.7791C85.5757 58.5717 78.215 62.2436 69.9966 62.2436ZM91.7929 52.8213C92.1233 52.6522 92.4537 52.4768 92.7498 52.3088C93.6158 51.8172 94.5185 51.4305 95.2703 51.1659C95.6465 51.0336 95.9894 50.9302 96.2754 50.8592C96.5486 50.7914 96.8067 50.7436 96.9966 50.7436C97.0275 50.7436 97.0732 50.7416 97.1321 50.739C97.9107 50.7047 100.997 50.5687 102.834 53.6407C104.761 56.8624 106.917 58.9604 109.122 59.9382C111.304 60.9057 113.58 60.7984 115.842 59.5188C118.253 58.1555 120.373 58.4082 121.881 59.0112C122.629 59.3102 123.223 59.6932 123.629 59.9995C123.751 60.0911 123.855 60.1762 123.943 60.2505L124.449 57.9453L124.426 57.9227C124.293 57.7929 124.11 57.6188 123.911 57.4403C123.524 57.0924 122.965 56.6599 122.27 56.309C120.892 55.6134 118.978 55.2334 116.75 56.4932C114.361 57.8444 111.884 57.9849 109.514 56.9352C107.168 55.896 104.975 53.7127 103.059 50.5102C102.094 48.8962 101.027 48.1523 100.013 47.8778C98.9975 47.6029 97.9567 47.7775 97.0006 48.1573L94.325 49.6334L92.4247 52.0089C92.219 52.2836 92.0083 52.5545 91.7929 52.8213Z" fill="#4F2570"/>
</svg>
