<svg width="16" height="16" viewBox="0 0 16 16" fill="none" xmlns="http://www.w3.org/2000/svg">
<path fill-rule="evenodd" clip-rule="evenodd" d="M16 8C16 8.29066 15.876 8.55235 15.678 8.73507L8.68045 15.2328C8.27574 15.6086 7.64301 15.5852 7.26721 15.1805C6.8914 14.7757 6.91484 14.143 7.31955 13.7672L12.4535 9H1C0.447715 9 0 8.55229 0 8C0 7.44772 0.447715 7 1 7H12.4535L7.31955 2.2328C6.91484 1.857 6.8914 1.22426 7.26721 0.819553C7.64301 0.414843 8.27574 0.391408 8.68045 0.767211L15.6784 7.26531C15.8762 7.44801 16 7.70954 16 8Z" fill="#4F2570"/>
</svg>
