<svg width="32" height="32" viewBox="0 0 32 32" fill="none" xmlns="http://www.w3.org/2000/svg">
<path fill-rule="evenodd" clip-rule="evenodd" d="M0 16C0 24.8366 7.16344 32 16 32C24.8366 32 32 24.8366 32 16C32 7.16344 24.8366 0 16 0C7.16344 0 0 7.16344 0 16ZM12.6822 7.0352C12.6822 8.83561 14.1417 10.2951 15.9421 10.2951C17.7425 10.2951 19.202 8.83561 19.202 7.0352C19.202 5.23479 17.7425 3.77528 15.9421 3.77528C14.1417 3.77528 12.6822 5.23479 12.6822 7.0352ZM15.9421 28.2247C14.1417 28.2247 12.6822 26.7652 12.6822 24.9648C12.6822 23.1644 14.1417 21.7049 15.9421 21.7049C17.7425 21.7049 19.202 23.1644 19.202 24.9648C19.202 26.7652 17.7425 28.2247 15.9421 28.2247ZM20.4464 11.5176C20.4464 13.318 21.9059 14.7775 23.7063 14.7775C25.5067 14.7775 26.9663 13.318 26.9663 11.5176C26.9663 9.71717 25.5067 8.25766 23.7063 8.25766C21.9059 8.25766 20.4464 9.71717 20.4464 11.5176ZM8.17921 23.7423C6.37881 23.7423 4.91929 22.2828 4.91929 20.4824C4.91929 18.682 6.37881 17.2225 8.17921 17.2225C9.97962 17.2225 11.4391 18.682 11.4391 20.4824C11.4391 22.2828 9.97962 23.7423 8.17921 23.7423ZM20.4463 20.4824C20.4463 22.2828 21.9058 23.7423 23.7063 23.7423C25.5067 23.7423 26.9662 22.2828 26.9662 20.4824C26.9662 18.682 25.5067 17.2225 23.7063 17.2225C21.9058 17.2225 20.4463 18.682 20.4463 20.4824ZM8.17921 14.7775C6.37881 14.7775 4.91929 13.318 4.91929 11.5176C4.91929 9.71717 6.37881 8.25766 8.17921 8.25766C9.97962 8.25766 11.4391 9.71717 11.4391 11.5176C11.4391 13.318 9.97962 14.7775 8.17921 14.7775Z" fill="#4F2570" fill-opacity="0.1"/>
<path fill-rule="evenodd" clip-rule="evenodd" d="M16 31.4286C7.47903 31.4286 0.571427 24.521 0.571427 16C0.571427 7.47904 7.47903 0.571429 16 0.571429C24.521 0.571429 31.4286 7.47904 31.4286 16C31.4286 24.521 24.521 31.4286 16 31.4286ZM12.1108 7.0352C12.1108 9.1512 13.8261 10.8666 15.9421 10.8666C18.0581 10.8666 19.7735 9.1512 19.7735 7.0352C19.7735 4.9192 18.0581 3.20385 15.9421 3.20385C13.8261 3.20385 12.1108 4.9192 12.1108 7.0352ZM12.1108 24.9648C12.1108 27.0808 13.8261 28.7961 15.9421 28.7961C18.0581 28.7961 19.7735 27.0808 19.7735 24.9648C19.7735 22.8488 18.0581 21.1334 15.9421 21.1334C13.8261 21.1334 12.1108 22.8488 12.1108 24.9648ZM19.875 11.5176C19.875 13.6336 21.5903 15.3489 23.7063 15.3489C25.8223 15.3489 27.5377 13.6336 27.5377 11.5176C27.5377 9.40158 25.8223 7.68623 23.7063 7.68623C21.5903 7.68623 19.875 9.40158 19.875 11.5176ZM4.34786 20.4824C4.34786 22.5984 6.06322 24.3137 8.17921 24.3137C10.2952 24.3137 12.0106 22.5984 12.0106 20.4824C12.0106 18.3664 10.2952 16.651 8.17921 16.651C6.06322 16.651 4.34786 18.3664 4.34786 20.4824ZM19.8749 20.4824C19.8749 22.5984 21.5903 24.3137 23.7063 24.3137C25.8222 24.3137 27.5376 22.5984 27.5376 20.4824C27.5376 18.3664 25.8222 16.651 23.7063 16.651C21.5903 16.651 19.8749 18.3664 19.8749 20.4824ZM4.34786 11.5176C4.34786 13.6336 6.06322 15.3489 8.17921 15.3489C10.2952 15.3489 12.0106 13.6336 12.0106 11.5176C12.0106 9.40158 10.2952 7.68623 8.17921 7.68623C6.06322 7.68623 4.34786 9.40158 4.34786 11.5176ZM16 32C7.16344 32 -1.43051e-06 24.8366 -1.43051e-06 16C-1.43051e-06 7.16344 7.16344 0 16 0C24.8366 0 32 7.16344 32 16C32 24.8366 24.8366 32 16 32ZM15.9421 10.2951C14.1417 10.2951 12.6822 8.83561 12.6822 7.0352C12.6822 5.23479 14.1417 3.77528 15.9421 3.77528C17.7425 3.77528 19.202 5.23479 19.202 7.0352C19.202 8.83561 17.7425 10.2951 15.9421 10.2951ZM12.6822 24.9648C12.6822 26.7652 14.1417 28.2247 15.9421 28.2247C17.7425 28.2247 19.202 26.7652 19.202 24.9648C19.202 23.1644 17.7425 21.7049 15.9421 21.7049C14.1417 21.7049 12.6822 23.1644 12.6822 24.9648ZM23.7063 14.7775C21.9059 14.7775 20.4464 13.318 20.4464 11.5176C20.4464 9.71717 21.9059 8.25766 23.7063 8.25766C25.5067 8.25766 26.9663 9.71717 26.9663 11.5176C26.9663 13.318 25.5067 14.7775 23.7063 14.7775ZM4.91929 20.4824C4.91929 22.2828 6.37881 23.7423 8.17921 23.7423C9.97962 23.7423 11.4391 22.2828 11.4391 20.4824C11.4391 18.682 9.97962 17.2225 8.17921 17.2225C6.37881 17.2225 4.91929 18.682 4.91929 20.4824ZM23.7063 23.7423C21.9058 23.7423 20.4463 22.2828 20.4463 20.4824C20.4463 18.682 21.9058 17.2225 23.7063 17.2225C25.5067 17.2225 26.9662 18.682 26.9662 20.4824C26.9662 22.2828 25.5067 23.7423 23.7063 23.7423ZM4.91929 11.5176C4.91929 13.318 6.37881 14.7775 8.17921 14.7775C9.97962 14.7775 11.4391 13.318 11.4391 11.5176C11.4391 9.71717 9.97962 8.25766 8.17921 8.25766C6.37881 8.25766 4.91929 9.71717 4.91929 11.5176Z" fill="#4F2570"/>
</svg>
