<svg width="48" height="48" viewBox="0 0 48 48" fill="none" xmlns="http://www.w3.org/2000/svg">
<path fill-rule="evenodd" clip-rule="evenodd" d="M26.1329 3.02154C25.413 1.27863 22.9444 1.27863 22.2245 3.02155L17.2988 14.9469C16.9912 15.6914 16.2874 16.1965 15.4836 16.2495L2.40714 17.1115C0.489253 17.2379 -0.278769 19.6506 1.21311 20.8625L11.18 28.9586C11.8221 29.4802 12.1011 30.3284 11.8938 31.1294L8.70881 43.4382C8.23287 45.2775 10.2357 46.7624 11.8573 45.7726L23.0771 38.9244C23.7535 38.5115 24.6039 38.5115 25.2803 38.9244L36.5001 45.7726C38.1218 46.7624 40.1245 45.2775 39.6486 43.4382L36.4636 31.1294C36.2563 30.3284 36.5353 29.4802 37.1774 28.9586L47.1443 20.8625C48.6362 19.6506 47.8682 17.2379 45.9503 17.1115L32.8738 16.2495C32.07 16.1965 31.3662 15.6914 31.0587 14.9469L26.1329 3.02154ZM32.2616 24.2682C33.0338 23.599 33.1173 22.4306 32.4481 21.6585C31.7789 20.8863 30.6105 20.8029 29.8383 21.472L23.1668 27.2539L20.419 24.6892C19.672 23.992 18.5013 24.0324 17.8041 24.7793C17.1069 25.5263 17.1473 26.697 17.8942 27.3942L21.8585 31.0944C22.5502 31.74 23.6175 31.7596 24.3325 31.14L32.2616 24.2682Z" fill="url(#gradient-paint)"/>
<defs>
<radialGradient id="gradient-paint" cx="0" cy="0" r="1" gradientUnits="userSpaceOnUse" gradientTransform="translate(24.1788 26.3057) rotate(-162.051) scale(19.7251 19.397)">
<stop stop-color="#FF9900"/>
<stop offset="1" stop-color="#E73030"/>
</radialGradient>
</defs>
</svg>
