<svg width="40" height="40" viewBox="0 0 40 40" fill="none" xmlns="http://www.w3.org/2000/svg">
<path d="M18.4919 2.77188C19.1995 1.74271 20.8005 1.74271 21.5081 2.77188L27.3025 11.2003C27.5448 11.5527 27.918 11.8077 28.3494 11.9155L38.6642 14.4932C39.9238 14.8079 40.4185 16.2398 39.5963 17.1907L32.8626 24.9774C32.581 25.303 32.4385 25.7155 32.4627 26.1346L33.0432 36.1561C33.1141 37.3798 31.8188 38.2648 30.6031 37.8232L20.647 34.2073C20.2307 34.0561 19.7693 34.0561 19.353 34.2073L9.39692 37.8232C8.1812 38.2648 6.88589 37.3798 6.95677 36.1561L7.53726 26.1346C7.56153 25.7155 7.41898 25.303 7.13739 24.9774L0.403711 17.1907C-0.418525 16.2398 0.0762362 14.8079 1.33576 14.4932L11.6506 11.9155C12.0819 11.8077 12.4552 11.5527 12.6975 11.2003L18.4919 2.77188Z" fill="url(#gradient-paint)"/>
<defs>
<radialGradient id="gradient-paint" cx="0" cy="0" r="1" gradientUnits="userSpaceOnUse" gradientTransform="translate(20 19.9693) rotate(-90) scale(16.352 18.896)">
<stop stop-color="#FF9900"/>
<stop offset="1" stop-color="#E73030"/>
</radialGradient>
</defs>
</svg>
