<svg width="16" height="16" viewBox="0 0 16 16" fill="none" xmlns="http://www.w3.org/2000/svg">
<path d="M8.19121 1.59201L10.509 4.96337C10.6779 5.20911 10.9328 5.37989 11.2185 5.45129L15.3445 6.48235C15.4316 6.50412 15.4754 6.55714 15.4918 6.60465C15.5075 6.65023 15.5029 6.70001 15.4603 6.74921L12.7668 9.86389C12.5715 10.0897 12.4685 10.3816 12.4859 10.6828L12.7181 14.6914C12.721 14.7406 12.6997 14.7921 12.6402 14.8328C12.5795 14.8743 12.4961 14.8899 12.4119 14.8593L8.42949 13.413C8.15268 13.3124 7.84732 13.3124 7.57051 13.413L3.58808 14.8593C3.50388 14.8899 3.42051 14.8743 3.35981 14.8328C3.30025 14.7921 3.27902 14.7406 3.28187 14.6914L3.51407 10.6828C3.53151 10.3816 3.42847 10.0897 3.23315 9.86389L0.539684 6.74921C0.497134 6.70001 0.492466 6.65023 0.508215 6.60465C0.524631 6.55714 0.568424 6.50412 0.655526 6.48235L4.78146 5.45129C5.06718 5.37989 5.32207 5.20911 5.49101 4.96337L7.80879 1.59201C7.84629 1.53747 7.91389 1.5 8 1.5C8.08611 1.5 8.15371 1.53747 8.19121 1.59201Z" fill="#4F2570" stroke="#4F2570"/>
</svg>
