<svg viewBox="0 0 16 16" fill="none" xmlns="http://www.w3.org/2000/svg">
<path fill-rule="evenodd" clip-rule="evenodd" d="M0 2C0 1.44772 0.447715 1 1 1H8H15C15.5523 1 16 1.44772 16 2C16 2.55228 15.5523 3 15 3H8H1C0.447715 3 0 2.55228 0 2ZM0 8C0 7.44772 0.447715 7 1 7H8H15C15.5523 7 16 7.44772 16 8C16 8.55228 15.5523 9 15 9H8H1C0.447715 9 0 8.55228 0 8ZM1 13C0.447715 13 0 13.4477 0 14C0 14.5523 0.447715 15 1 15H8H15C15.5523 15 16 14.5523 16 14C16 13.4477 15.5523 13 15 13H8H1Z" fill="currentColor"/>
</svg>
