<svg viewBox="0 0 16 16" fill="none" xmlns="http://www.w3.org/2000/svg">
<path fill-rule="evenodd" clip-rule="evenodd" d="M8 3.5C8 4.32843 7.32843 5 6.5 5C5.67157 5 5 4.32843 5 3.5C5 2.67157 5.67157 2 6.5 2C7.32843 2 8 2.67157 8 3.5ZM9.5 5.30379C8.88755 6.32021 7.77316 7 6.5 7C4.567 7 3 5.433 3 3.5C3 1.567 4.567 0 6.5 0C7.77316 0 8.88755 0.679792 9.5 1.69621C10.1124 0.679792 11.2268 0 12.5 0C14.433 0 16 1.567 16 3.5C16 5.433 14.433 7 12.5 7C11.2268 7 10.1124 6.32021 9.5 5.30379ZM14 3.5C14 4.32843 13.3284 5 12.5 5C11.6716 5 11 4.32843 11 3.5C11 2.67157 11.6716 2 12.5 2C13.3284 2 14 2.67157 14 3.5ZM8.94949 6.00005C9.16099 5.7928 9.3463 5.55887 9.5 5.30379C9.6537 5.55887 9.83901 5.7928 10.0505 6.00005H8.94949ZM4.68489 6.4932C4.10563 6.14117 3.63666 5.62573 3.34197 5.01086C2.61094 5.66138 2.12013 6.57601 2.01926 7.60504L1.70711 7.29289C1.31658 6.90237 0.683418 6.90237 0.292893 7.29289C-0.0976311 7.68342 -0.0976311 8.31658 0.292893 8.70711L1.23221 9.64642L0.292893 10.5857C-0.0976311 10.9763 -0.0976311 11.6094 0.292893 12C0.683418 12.3905 1.31658 12.3905 1.70711 12L2 11.7071V12.0001C2 14.2092 3.79086 16.0001 6 16.0001H12C14.2091 16.0001 16 14.2092 16 12.0001V8.00005C16 7.12915 15.7217 6.32326 15.2491 5.66647C14.8321 6.19493 14.266 6.60026 13.6142 6.81897C13.8568 7.14994 14 7.55827 14 8.00005V12.0001C14 13.1046 13.1046 14.0001 12 14.0001H6C4.89543 14.0001 4 13.1046 4 12.0001V8.00005C4 7.39897 4.26516 6.85983 4.68489 6.4932Z" fill="currentColor"/>
</svg>
