<svg width="16" height="16" viewBox="0 0 16 16" fill="none" xmlns="http://www.w3.org/2000/svg">
<path fill-rule="evenodd" clip-rule="evenodd" d="M13 7.5C13 10.5376 10.5376 13 7.5 13C4.46243 13 2 10.5376 2 7.5C2 4.46243 4.46243 2 7.5 2C10.5376 2 13 4.46243 13 7.5ZM12.0491 13.4633C10.7873 14.4274 9.21054 15 7.5 15C3.35786 15 0 11.6421 0 7.5C0 3.35786 3.35786 0 7.5 0C11.6421 0 15 3.35786 15 7.5C15 9.21054 14.4274 10.7873 13.4633 12.0491L13.7071 12.2929L15.2929 13.8787C15.6834 14.2692 15.6834 14.9024 15.2929 15.2929C14.9024 15.6834 14.2692 15.6834 13.8787 15.2929L12.2929 13.7071L12.0491 13.4633Z" fill="#FFFFFF"/>
</svg>
