<svg width="16" height="16" viewBox="0 0 16 16" fill="none" xmlns="http://www.w3.org/2000/svg">
<path fill-rule="evenodd" clip-rule="evenodd" d="M12 4.00001H10.4497L12.7426 1.70711C13.1332 1.31658 13.1332 0.683418 12.7426 0.292893C12.3521 -0.0976311 11.719 -0.0976311 11.3284 0.292893L7.76732 3.854C7.75928 3.84537 7.75105 3.83685 7.74264 3.82844L4.20711 0.292905C3.81658 -0.0976197 3.18342 -0.0976197 2.79289 0.292905C2.40237 0.683429 2.40237 1.31659 2.79289 1.70712L5.08579 4.00001H4C1.79086 4.00001 0 5.79087 0 8.00001V12C0 14.2092 1.79086 16 4 16H12C14.2091 16 16 14.2092 16 12V8.00001C16 5.79087 14.2091 4.00001 12 4.00001ZM12 6.00001H4C2.89543 6.00001 2 6.89544 2 8.00001V12C2 13.1046 2.89543 14 4 14H12C13.1046 14 14 13.1046 14 12V8.00001C14 6.89544 13.1046 6.00001 12 6.00001Z" fill="#FFFFFF"/>
</svg>
