<svg viewBox="0 0 16 16" fill="none" xmlns="http://www.w3.org/2000/svg">
<path fill-rule="evenodd" clip-rule="evenodd" d="M8.58123 0.186267C8.23354 -0.0620888 7.76646 -0.0620888 7.41877 0.186267L0.418828 5.18627C0.0650904 5.43894 -0.0848893 5.8912 0.0477743 6.30518C0.180431 6.71913 0.56531 6.99997 0.999991 7V14C0.999991 15.1046 1.89541 16 2.99997 16H12.9999C14.1044 16 14.9999 15.1046 14.9999 14V7C15.4346 7 15.8196 6.71915 15.9522 6.30518C16.0849 5.8912 15.9349 5.43894 15.5812 5.18627L8.58123 0.186267ZM12.9999 7H2.99997V14H12.9999V7ZM11.8795 5L8 2.2289L4.1205 5H11.8795Z" fill="currentColor"/>
</svg>
