<svg viewBox="0 0 16 16" fill="none" xmlns="http://www.w3.org/2000/svg">
<path d="M1.66668 11.2609H0V5H1.66668V11.2609Z" fill="currentColor"/>
<path d="M4.85142 7.92471L5.22444 5H7.33361V11.2609H5.92384L5.91972 7.03542L5.35472 11.2609H4.34813L3.75295 7.12656L3.74746 11.2609H2.33358V5H4.4263C4.48801 5.37974 4.55246 5.82439 4.61966 6.33393L4.85142 7.92471Z" fill="currentColor"/>
<path fill-rule="evenodd" clip-rule="evenodd" d="M8.0004 11.2609V5H10.6019C11.1902 5 11.6671 5.4939 11.6671 6.10491V10.156C11.6671 10.7662 11.191 11.2609 10.6019 11.2609H8.0004ZM9.94449 6.1268C9.87838 6.08952 9.75191 6.07156 9.56796 6.07156V10.1797C9.81084 10.1797 9.9603 10.1341 10.0163 10.0388C10.0724 9.94493 10.1011 9.69085 10.1011 9.27383V6.84624C10.1011 6.56316 10.0911 6.38226 10.0724 6.30217C10.0537 6.22208 10.012 6.16408 9.94449 6.1268Z" fill="currentColor"/>
<path fill-rule="evenodd" clip-rule="evenodd" d="M14.9165 6.56761H14.81C14.4517 6.56761 14.1342 6.74268 13.9281 7.01064V5H12.3333V11.1805H13.8279L13.9239 10.7977C14.1201 11.0778 14.4438 11.2609 14.81 11.2609H14.9165C15.5151 11.2609 16 10.7722 16 10.1694V7.6591C16 7.0566 15.5149 6.56761 14.9165 6.56761ZM14.4685 8.13709V9.62063C14.4685 9.90023 14.4547 10.0777 14.427 10.1505C14.3994 10.2232 14.2677 10.2617 14.1772 10.2617C14.0867 10.2617 13.9574 10.222 13.9272 10.1505V7.63921C13.9536 7.5741 14.0892 7.53546 14.1772 7.53546C14.2652 7.53546 14.3906 7.583 14.422 7.65705C14.4534 7.7311 14.4685 7.89196 14.4685 8.13709Z" fill="currentColor"/>
</svg>
