<svg width="16" height="16" viewBox="0 0 16 16" fill="none" xmlns="http://www.w3.org/2000/svg">
<path fill-rule="evenodd" clip-rule="evenodd" d="M10.8771 11.2665C12.7381 10.2477 14 8.27121 14 6C14 2.68629 11.3137 0 8 0C4.68629 0 2 2.68629 2 6C2 8.2712 3.26192 10.2477 5.12287 11.2665C2.73404 11.727 0.898425 12.7441 0.251953 14C0.0903306 14.314 0.00303386 14.6429 0 14.9817V15.0183C0.00303386 15.3571 0.0903306 15.686 0.251953 16H15.7479C15.9124 15.6804 15.9999 15.3453 15.9999 15C15.9999 14.6547 15.9124 14.3196 15.7479 14C15.1014 12.7442 13.2659 11.727 10.8771 11.2665ZM12 6C12 8.20914 10.2091 10 8 10C5.79086 10 4 8.20914 4 6C4 3.79086 5.79086 2 8 2C10.2091 2 12 3.79086 12 6ZM12.84 14C12.84 14 3.13148 14.0147 3.15979 14C3.1881 13.9853 3.21699 13.9706 3.24648 13.9559C4.36227 13.4004 6.0396 13 7.99992 13C9.96589 13 11.6469 13.4027 12.7623 13.9604C12.7887 13.9736 12.8146 13.9868 12.84 14Z" fill="#FFFFFF"/>
</svg>
