<svg viewBox="0 0 16 16" fill="none" xmlns="http://www.w3.org/2000/svg">
<path d="M16 3.03968C15.4116 3.3004 14.7795 3.47657 14.115 3.5562C14.7929 3.15031 15.313 2.50625 15.5582 1.73958C14.924 2.11587 14.2214 2.38928 13.4738 2.53585C12.8748 1.89884 12.0222 1.5 11.078 1.5C9.26557 1.5 7.79565 2.96992 7.79565 4.78371C7.79565 5.04021 7.82524 5.28966 7.88021 5.53065C5.15106 5.39324 2.73337 4.0861 1.11407 2.10037C0.832203 2.58658 0.670131 3.15031 0.670131 3.75068C0.670131 4.88941 1.25007 5.89496 2.13019 6.48335C1.59183 6.46574 1.08588 6.31846 0.643354 6.07254V6.11482C0.643354 7.70523 1.77433 9.03211 3.27667 9.3337C3.00044 9.40839 2.71083 9.44785 2.41205 9.44785C2.20065 9.44785 1.99419 9.42812 1.79406 9.39007C2.21193 10.6937 3.42394 11.6436 4.86074 11.6689C3.73681 12.5498 2.32115 13.0747 0.783581 13.0747C0.518629 13.0747 0.257201 13.0592 0 13.0289C1.45301 13.9612 3.17801 14.5038 5.03127 14.5038C11.0702 14.5038 14.3715 9.50211 14.3715 5.16423C14.3715 5.0233 14.368 4.88096 14.3617 4.74002C15.0029 4.27636 15.5596 3.69924 15.9986 3.0418L16 3.03968Z" fill="currentColor"/>
</svg>
