<svg width="512" height="512" viewBox="0 0 512 512" fill="none" xmlns="http://www.w3.org/2000/svg">
<rect width="512" height="512" fill="#4F2570"/>
<path d="M239.109 56.645C247.034 45.1182 264.966 45.1182 272.891 56.645L337.788 151.043C340.502 154.991 344.682 157.846 349.513 159.054L465.039 187.923C479.146 191.449 484.687 207.486 475.478 218.135L400.061 305.346C396.907 308.993 395.311 313.614 395.583 318.308L402.084 430.548C402.878 444.254 388.371 454.166 374.755 449.22L263.246 408.722C258.583 407.028 253.417 407.028 248.754 408.722L137.245 449.22C123.629 454.166 109.122 444.254 109.916 430.548L116.417 318.308C116.689 313.614 115.093 308.993 111.939 305.346L36.5216 218.135C27.3125 207.486 32.8538 191.449 46.9605 187.923L162.487 159.054C167.318 157.846 171.498 154.991 174.212 151.043L239.109 56.645Z" fill="url(#paint0_radial_1177_6)"/>
<defs>
<radialGradient id="paint0_radial_1177_6" cx="0" cy="0" r="1" gradientUnits="userSpaceOnUse" gradientTransform="translate(256 249.256) rotate(-90) scale(183.143 211.635)">
<stop stop-color="#FF9900"/>
<stop offset="1" stop-color="#E73030"/>
</radialGradient>
</defs>
</svg>
