<svg width="512" height="512" viewBox="0 0 512 512" fill="none" xmlns="http://www.w3.org/2000/svg">
<rect width="512" height="512" fill="#2F0253"/>
<path fill-rule="evenodd" clip-rule="evenodd" d="M272.676 75.1547C266.533 60.2818 245.467 60.2818 239.324 75.1547L197.291 176.918C194.667 183.271 188.661 187.581 181.802 188.033L70.2161 195.389C53.8501 196.468 47.2963 217.056 60.027 227.397L145.078 296.484C150.557 300.935 152.938 308.173 151.169 315.008L123.99 420.043C119.929 435.739 137.02 448.41 150.858 439.964L246.6 381.525C252.372 378.003 259.629 378.003 265.4 381.525L361.143 439.964C374.981 448.41 392.071 435.739 388.01 420.043L360.831 315.008C359.063 308.173 361.443 300.935 366.923 296.484L451.973 227.397C464.704 217.056 458.15 196.468 441.784 195.389L330.198 188.033C323.339 187.581 317.333 183.271 314.709 176.918L272.676 75.1547ZM324.977 256.46C331.566 250.75 332.278 240.779 326.568 234.19C320.857 227.601 310.887 226.889 304.298 232.599L247.367 281.938L223.919 260.053C217.545 254.103 207.555 254.447 201.606 260.821C195.657 267.195 196.001 277.186 202.375 283.135L236.203 314.71C242.106 320.219 251.214 320.387 257.315 315.099L324.977 256.46Z" fill="url(#gradient-paint)"/>
<defs>
<radialGradient id="gradient-paint" cx="0" cy="0" r="1" gradientUnits="userSpaceOnUse" gradientTransform="translate(256.001 273.847) rotate(-162.051) scale(168.321 165.521)">
<stop stop-color="#FF9900"/>
<stop offset="1" stop-color="#E73030"/>
</radialGradient>
</defs>
</svg>
